<svg xmlns="http://www.w3.org/2000/svg" width="364.586" height="364.586" viewBox="0 0 364.5859 364.5859"><path fill="#0084B1" d="M364.586 352.586c0 6.627-5.373 12-12 12H12c-6.627 0-12-5.373-12-12V12C0 5.373 5.373 0 12 0h340.586c6.627 0 12 5.373 12 12v340.586z"/><path fill="#FFF" d="M85.805 55.371c16.699.016 30.468 13.805 30.433 30.59-.039 17.57-14.62 30.813-30.64 30.434-16.246.328-30.524-13.242-30.52-30.551 0-16.79 13.824-30.484 30.727-30.473zm0 0M103.543 309.176H67.77c-4.645 0-8.411-3.762-8.411-8.406V148.145c0-4.645 3.766-8.406 8.411-8.406h35.773a8.407 8.407 0 0 1 8.41 8.406V300.77a8.407 8.407 0 0 1-8.41 8.406zm0 0M309.508 193.344c0-31.996-25.938-57.934-57.938-57.934h-9.176c-17.503 0-32.968 8.735-42.273 22.086a51.043 51.043 0 0 0-2.816 4.524c-.297-.043-.473-.067-.477-.06v-18.733a3.493 3.493 0 0 0-3.492-3.492h-44.637a3.49 3.49 0 0 0-3.488 3.492v162.46a3.492 3.492 0 0 0 3.488 3.493l45.61.012a3.49 3.49 0 0 0 3.488-3.493v-93.86c0-16.222 12.941-29.694 29.164-29.878 8.281-.094 15.79 3.226 21.203 8.64a29.404 29.404 0 0 1 8.64 20.864v94.246a3.495 3.495 0 0 0 3.489 3.492l45.723.008a3.484 3.484 0 0 0 3.488-3.489V193.345h.004zm0 0"/></svg>