<svg id="Capa_1" xmlns="http://www.w3.org/2000/svg" viewBox="0 0 641.5 206.8"><style>.st0{fill:#949494}</style><path class="st0" d="M270.4 108.8c0 29.7-23.3 51.7-51.8 51.7s-51.8-21.9-51.8-51.7c0-29.9 23.3-51.7 51.8-51.7s51.8 21.7 51.8 51.7zm-22.7 0c0-18.6-13.5-31.3-29.2-31.3-15.6 0-29.2 12.7-29.2 31.3 0 18.4 13.5 31.3 29.2 31.3s29.2-12.9 29.2-31.3zM384.5 108.8c0 29.7-23.3 51.7-51.8 51.7-28.6 0-51.8-21.9-51.8-51.7 0-29.9 23.3-51.7 51.8-51.7 28.5 0 51.8 21.7 51.8 51.7zm-22.7 0c0-18.6-13.5-31.3-29.2-31.3-15.6 0-29.2 12.7-29.2 31.3 0 18.4 13.5 31.3 29.2 31.3s29.2-12.9 29.2-31.3zM493.8 60.3V153c0 38.2-22.5 53.8-49.1 53.8-25 0-40.1-16.8-45.8-30.5l19.8-8.2c3.5 8.4 12.1 18.4 26 18.4 17 0 27.6-10.6 27.6-30.3v-7.4h-.8c-5.1 6.3-14.9 11.7-27.2 11.7-25.8 0-49.5-22.5-49.5-51.5 0-29.2 23.7-51.8 49.5-51.8 12.3 0 22.1 5.5 27.2 11.5h.8v-8.4h21.5zM473.9 109c0-18.2-12.1-31.5-27.6-31.5-15.6 0-28.8 13.3-28.8 31.5 0 18 13.1 31.1 28.8 31.1 15.4 0 27.6-13.1 27.6-31.1zM534.4 6.5v150.8H512V6.5h22.4zM622.9 125.8l17.6 11.7c-5.7 8.4-19.4 22.9-43 22.9-29.3 0-51.3-22.7-51.3-51.7 0-30.7 22.1-51.7 48.7-51.7 26.8 0 39.9 21.3 44.2 32.9l2.3 5.9-69.1 28.6c5.3 10.4 13.5 15.6 25 15.6s19.7-5.6 25.6-14.2zm-54.2-18.6L614.9 88c-2.5-6.5-10.2-11-19.2-11-11.5.1-27.6 10.3-27 30.2zM155.2 72.7c.8 4.8 1.1 9.5 1.1 14 0 16.4-4.5 36.8-19 51.3-14.1 14.7-32.1 22.5-56 22.5-44.2 0-81.4-36-81.4-80.2S37.2 0 81.4 0c24.5 0 41.9 9.6 55 22.1l-15.5 15.5c-9.4-8.8-22.1-15.7-39.5-15.7-32.3 0-57.5 26-57.5 58.3s25.2 58.3 57.5 58.3c20.9 0 32.9-8.4 40.5-16 6.3-6.3 10.5-15.5 12.1-27.9H81.4V72.7h73.8z"/></svg>