<svg id="LOGO" xmlns="http://www.w3.org/2000/svg" viewBox="0 0 1106 309"><style>.st0{fill:#4285f4}.st1{fill:#ea4335}.st2{fill:#fbbc05}.st3{fill:#34a853}.st4{fill:#9aa0a6}</style><path class="st0" d="M102.5 155.5c0-28.9 24.3-52.5 53.3-52.5 16 0 27.4 6.3 36 14.5l-10.1 10.1c-6.1-5.8-14.5-10.2-25.9-10.2-21.1 0-37.6 17-37.6 38.1s16.5 38.1 37.6 38.1c13.7 0 21.5-5.5 26.5-10.5 4.1-4.1 6.8-10 7.8-18h-34.3v-14.3H204c.5 2.6.8 5.6.8 9 0 10.8-2.9 24.1-12.4 33.5-9.2 9.6-21 14.7-36.6 14.7-29 0-53.3-23.6-53.3-52.5"/><path class="st1" d="M243.8 140.4c-18.7 0-33.9 14.2-33.9 33.8 0 19.5 15.2 33.8 33.9 33.8s33.9-14.3 33.9-33.8c0-19.6-15.2-33.8-33.9-33.8m0 54.3c-10.2 0-19.1-8.4-19.1-20.5 0-12.2 8.8-20.5 19.1-20.5 10.2 0 19.1 8.3 19.1 20.5 0 12-8.9 20.5-19.1 20.5"/><path class="st2" d="M317.8 140.4c-18.7 0-33.9 14.2-33.9 33.8 0 19.5 15.2 33.8 33.9 33.8s33.9-14.3 33.9-33.8c0-19.6-15.2-33.8-33.9-33.8m0 54.3c-10.2 0-19.1-8.4-19.1-20.5 0-12.2 8.8-20.5 19.1-20.5 10.2 0 19.1 8.3 19.1 20.5-.1 12-8.9 20.5-19.1 20.5"/><path class="st0" d="M408.6 142.5v5.5h-.5c-3.3-4-9.7-7.6-17.8-7.6-16.9 0-32.4 14.8-32.4 33.9 0 18.9 15.5 33.7 32.4 33.7 8.1 0 14.5-3.6 17.8-7.7h.5v4.9c0 12.9-6.9 19.8-18 19.8-9.1 0-14.7-6.5-17-12l-12.9 5.4c3.7 9 13.6 20 30 20 17.4 0 32.1-10.2 32.1-35.2v-60.7h-14.2zm-17 52.2c-10.2 0-18.8-8.6-18.8-20.4 0-11.9 8.6-20.6 18.8-20.6 10.1 0 18 8.7 18 20.6 0 11.8-7.9 20.4-18 20.4"/><path class="st3" d="M432.9 106.6h14.8v99.3h-14.8z"/><path class="st1" d="M488.5 194.7c-7.6 0-12.9-3.5-16.4-10.2l45.2-18.7-1.5-3.8c-2.8-7.6-11.4-21.5-28.9-21.5-17.4 0-31.9 13.7-31.9 33.8 0 18.9 14.3 33.8 33.5 33.8 15.5 0 24.4-9.5 28.2-15l-11.5-7.7c-3.9 5.6-9.2 9.3-16.7 9.3m-1.2-41.2c5.9 0 10.9 2.9 12.5 7.2l-30.2 12.5c-.3-13.1 10.2-19.7 17.7-19.7"/><g><path class="st4" d="M583.8 114.3h13.3l34.6 91.7h-13.1l-8.8-24.8h-38.5l-9 24.8h-13.1l34.6-91.7zm21.9 55.8l-15-41.3h-.5l-15 41.3h30.5zM634.2 174.6c0-19.1 13.4-33.4 32.3-33.4 15 0 23.7 8.8 27.5 18l-10.8 4.5c-3.1-7.4-8.8-11.8-17.5-11.8-10 0-19.7 9.1-19.7 22.7s9.7 22.7 19.7 22.7c8.7 0 15.1-4.5 18.2-11.8l10.5 4.5c-3.8 9.2-12.9 18-27.9 18-18.8 0-32.3-14.5-32.3-33.4zM710.3 186.9V154h-11v-10.8h11V124H722v19.2h15.4V154H722v32c0 7 2.9 10.2 8.4 10.2 2.2 0 3.7-.3 5.4-1l4.1 10.1c-2.7 1.2-5.5 1.7-9.5 1.7-13.1 0-20.1-7.3-20.1-20.1zM749.7 205.9v-62.7h11.8v62.7h-11.8zm.5-75.2l6.7-16.4h12.8l-9.2 16.4h-10.3zM769.5 143.2h12.8l18.4 48.6h.3l18.7-48.6h12.5l-25.6 62.7h-11.8l-25.3-62.7zM834.4 187c0-14.2 12.8-21.9 27.5-21.9 8.4 0 14.6 2.4 17 3.8v-1.8c0-9.5-7.6-15.2-16.4-15.2-6.5 0-12.8 3.2-15 9.1l-10.8-4.6c2.2-5.8 9.7-15.2 25.5-15.2 15.4 0 27.9 9.2 27.9 26.9V206H879v-8.7h-.5c-3.5 5.2-9.9 10.8-20.6 10.8-12.9-.1-23.5-8-23.5-21.1zm44.6-8.1s-5-4.1-15-4.1c-12.4 0-17.3 6.7-17.3 12.4 0 6.7 6.9 10 13.1 10 9.3 0 19.2-8 19.2-18.3zM908.5 186.9V154h-11v-10.8h11V124h11.8v19.2h15.4V154h-15.4v32c0 7 2.9 10.2 8.4 10.2 2.2 0 3.7-.3 5.4-1l4.1 10.1c-2.7 1.2-5.5 1.7-9.5 1.7-13.1 0-20.2-7.3-20.2-20.1zM942.1 174.6c0-17.8 12.3-33.4 30.7-33.4 18.7 0 30.7 13.2 30.7 33.4 0 .9-.1 2.2-.1 2.2h-49.5c.6 13.3 10.2 20.5 20 20.5 6.9 0 13.8-2.8 17.2-10.8l10.5 4.4c-3.7 9-12.9 17.2-27.4 17.2-19.3-.1-32.1-14.6-32.1-33.5zm30.4-22.7c-8.7 0-15.6 5.9-17.9 15.1H991c-.4-5.5-5-15.1-18.5-15.1z"/></g></svg>