<svg xmlns="http://www.w3.org/2000/svg" width="364.586" height="364.586" viewBox="0 0 364.5859 364.5859"><path fill="#FFF" d="M352.586 352.586c0 6.627-5.373 12-12 12H70c-6.627 0-12-5.373-12-12V25c0-6.627 5.373-12 12-12h270.586c6.627 0 12 5.373 12 12v327.586z"/><path fill="#3A559F" d="M352.586 0H12C5.373 0 0 5.373 0 12v340.586c0 6.627 5.373 12 12 12h182.164V223.754H146.7v-57.492h47.465V117.98c0-35.117 28.465-63.582 63.578-63.582h49.621v51.7H271.86c-11.16 0-20.203 9.043-20.203 20.203v39.96h54.817l-7.578 57.493h-47.239v140.832h100.93c6.627 0 12-5.373 12-12V12c0-6.627-5.373-12-12-12z"/></svg>